# xmcd
#
# Track frame offsets: 
#        150
#        18875
#        35306
#        58713
#        75433
#        89554
#        116993
#        141260
#        153474
#        175365
#        193567
#        207464
#        227148
#
# Disc length: 3311 seconds
#
# Revision: 1
# Processed by: cddbd v1.5.2PL0 Copyright (c) Steve Scherf et al.
# Submitted via: ExactAudioCopy v0.99pb4
#
DISCID=b00ced0d
DTITLE=黄红英 - 客家妹子
DYEAR=2006
DGENRE=Folk
TTITLE0=月光光
TTITLE1=爱唱山歌你就来
TTITLE2=欢迎你到惠州来
TTITLE3=皆歌一唱闹洋洋
TTITLE4=撑船调
TTITLE5=榄树打花花榄花
TTITLE6=对面唱歌系哪人
TTITLE7=满山桃李结成梅
TTITLE8=凉草帽
TTITLE9=客家山歌特出名
TTITLE10=客家妹子爱唱歌
TTITLE11=胲担歌
TTITLE12=落水天
EXTD=
EXTT0=
EXTT1=
EXTT2=
EXTT3=
EXTT4=
EXTT5=
EXTT6=
EXTT7=
EXTT8=
EXTT9=
EXTT10=
EXTT11=
EXTT12=
PLAYORDER=
